<?xml version="1.0" encoding="UTF-8" standalone="no"?>
<svg width="68.791664mm" height="37.813198mm" viewBox="0 0 68.791664 37.813198" version="1.1" id="svg8" inkscape:version="1.1.2 (08b2f3d93c, 2022-04-05)" sodipodi:docname="logo-light.svg" xmlns:inkscape="http://www.inkscape.org/namespaces/inkscape" xmlns:sodipodi="http://sodipodi.sourceforge.net/DTD/sodipodi-0.dtd" xmlns="http://www.w3.org/2000/svg" xmlns:svg="http://www.w3.org/2000/svg" xmlns:rdf="http://www.w3.org/1999/02/22-rdf-syntax-ns#" xmlns:cc="http://creativecommons.org/ns#" xmlns:dc="http://purl.org/dc/elements/1.1/">
  <defs id="defs2"/>
  <sodipodi:namedview id="base" pagecolor="#ffffff" bordercolor="#666666" borderopacity="1.0" inkscape:pageopacity="0.0" inkscape:pageshadow="2" inkscape:zoom="4" inkscape:cx="166.5" inkscape:cy="81.75" inkscape:document-units="mm" inkscape:current-layer="layer1" inkscape:document-rotation="0" showgrid="true" inkscape:snap-bbox="true" inkscape:bbox-paths="true" inkscape:bbox-nodes="true" inkscape:snap-bbox-edge-midpoints="true" inkscape:snap-bbox-midpoints="true" inkscape:snap-object-midpoints="true" inkscape:snap-grids="false" inkscape:window-width="1920" inkscape:window-height="1019" inkscape:window-x="1080" inkscape:window-y="623" inkscape:window-maximized="1" inkscape:pagecheckerboard="0">
    <inkscape:grid type="xygrid" id="grid837" originx="-74.083326" originy="-47.624996"/>
  </sodipodi:namedview>
  <metadata id="metadata5">
    <rdf:RDF>
      <cc:Work rdf:about="">
        <dc:format>image/svg+xml</dc:format>
        <dc:type rdf:resource="http://purl.org/dc/dcmitype/StillImage"/>
      </cc:Work>
    </rdf:RDF>
  </metadata>
  <g inkscape:label="Layer 1" inkscape:groupmode="layer" id="layer1" transform="translate(-74.083332,-47.624999)">
    <path id="path833" style="fill:#ebe4e6;fill-opacity:1;stroke:#000000;stroke-width:0;stroke-miterlimit:4;stroke-dasharray:none" inkscape:transform-center-x="-2.6458331" d="M 125,0 95,17.5 65,35 35,52.5 5,70 35,87.5 65,105 95,87.5 125,70 V 35 Z m 10,0 V 35 70 L 165,87.5 195,105 225,87.5 255,70 225,52.5 195,35 165,17.5 Z M 0,80 v 35 27.91602 L 11.085938,136.44922 53.927734,111.45898 30,97.5 Z M 130,80 100,97.5 76.072266,111.45898 130,142.91602 183.92773,111.45898 160,97.5 Z m 130,0 -30,17.5 -23.92773,13.95898 41.0625,23.95313 L 260,142.91602 V 115 Z" transform="matrix(0.26458333,0,0,0.26458333,74.083332,47.624999)"/>
  </g>
</svg>